<?xml version="1.0" encoding="UTF-8"?>
<svg id="Layer_2" data-name="Layer 2" xmlns="http://www.w3.org/2000/svg" viewBox="0 0 343.3 112.77">
  <defs>
    <style>
      .cls-1 {
        fill: none;
        stroke: #11190c;
        stroke-miterlimit: 10;
        stroke-width: 6px;
      }

      .cls-2 {
        fill: #11190c;
      }
    </style>
  </defs>
  <g id="Layer_1-2" data-name="Layer 1">
    <g>
      <g>
        <path class="cls-2" d="M157.81,79.84c-3.58,0-6.58-.67-9.01-2-2.43-1.33-4.27-3.15-5.52-5.46-1.25-2.31-1.88-4.91-1.88-7.82v-1.79h5.01v1.43c0,3.62,1.01,6.35,3.04,8.2s4.81,2.77,8.35,2.77c3.1,0,5.44-.7,7.01-2.09s2.36-3.2,2.36-5.43v-.36c0-2.19-.8-3.86-2.42-5.01-1.61-1.15-4.23-1.99-7.85-2.51-4.18-.6-7.51-1.78-9.99-3.55-2.49-1.77-3.73-4.44-3.73-8.02v-.72c0-2.19.59-4.11,1.76-5.76,1.17-1.65,2.79-2.95,4.86-3.91s4.45-1.43,7.16-1.43c3.14,0,5.82.58,8.03,1.73,2.21,1.15,3.9,2.68,5.07,4.56,1.17,1.89,1.76,3.97,1.76,6.23v2.51h-5.01v-2.15c0-1.83-.46-3.35-1.37-4.56-.92-1.21-2.13-2.13-3.64-2.74-1.51-.62-3.14-.92-4.89-.92-1.51,0-2.93.26-4.27.78-1.33.52-2.41,1.26-3.22,2.24-.82.98-1.22,2.18-1.22,3.61v.36c0,2.31.93,3.99,2.8,5.04,1.87,1.05,4.67,1.86,8.41,2.42,4.38.64,7.6,1.91,9.67,3.82s3.1,4.45,3.1,7.64v.72c0,3.62-1.22,6.55-3.67,8.8-2.45,2.25-6.02,3.37-10.71,3.37Z"/>
        <path class="cls-2" d="M186.27,79.01v-41.76h14.92c2.86,0,5.24.53,7.13,1.58,1.89,1.05,3.3,2.44,4.24,4.15.93,1.71,1.4,3.58,1.4,5.61v1.79c0,2.03-.48,3.92-1.43,5.67-.96,1.75-2.38,3.15-4.27,4.21-1.89,1.05-4.25,1.58-7.07,1.58h-9.9v17.18h-5.01ZM191.28,57.17h9.31c5.57,0,8.35-2.39,8.35-7.16v-1.07c0-2.11-.69-3.81-2.06-5.1-1.37-1.29-3.47-1.94-6.29-1.94h-9.31v15.27Z"/>
        <path class="cls-2" d="M224.57,79.01l12.65-41.76h9.43l12.65,41.76h-5.37l-3.04-10.38h-17.9l-3.04,10.38h-5.37ZM234.36,63.97h15.15l-7.22-24.58h-.72l-7.22,24.58Z"/>
        <path class="cls-2" d="M271.23,79.01v-41.76h14.92c2.86,0,5.24.53,7.13,1.58,1.89,1.05,3.3,2.44,4.24,4.15.93,1.71,1.4,3.58,1.4,5.61v1.79c0,1.55-.43,3.1-1.28,4.65-.86,1.55-2.18,2.74-3.97,3.58v.72c1.19.16,2.13.63,2.8,1.4.68.78,1.01,1.86,1.01,3.25v15.04h-5.01v-13.96c0-1.03-.24-1.83-.72-2.39-.48-.56-1.31-.84-2.51-.84h-13.01v17.18h-5.01ZM276.24,57.17h9.31c5.57,0,8.35-2.39,8.35-7.16v-1.07c0-2.11-.69-3.81-2.06-5.1-1.37-1.29-3.47-1.94-6.29-1.94h-9.31v15.27Z"/>
        <path class="cls-2" d="M313.94,79.01v-41.76h5.01v18.49h1.37l16.05-18.49h6.21v.36l-17.3,20.17v.72l18.02,20.17v.36h-6.32l-16.65-18.61h-1.37v18.61h-5.01Z"/>
      </g>
      <g>
        <path class="cls-1" d="M46.32,46.32l7.19-19.43c.99-2.67,4.77-2.67,5.75,0l7.19,19.43,19.43,7.19c2.67.99,2.67,4.77,0,5.75l-19.43,7.19-7.19,19.43c-.99,2.67-4.77,2.67-5.75,0l-7.19-19.43-19.43-7.19c-2.67-.99-2.67-4.77,0-5.75l19.43-7.19Z"/>
        <circle class="cls-2" cx="56.39" cy="3.59" r="3.59"/>
        <circle class="cls-2" cx="30.18" cy="28.61" r="3.59"/>
        <circle class="cls-2" cx="28.61" cy="82.6" r="3.59"/>
        <circle class="cls-2" cx="82.6" cy="84.16" r="3.59"/>
        <circle class="cls-2" cx="84.16" cy="30.18" r="3.59"/>
        <circle class="cls-2" cx="3.59" cy="56.39" r="3.59"/>
        <circle class="cls-2" cx="56.39" cy="109.19" r="3.59"/>
        <circle class="cls-2" cx="109.19" cy="56.39" r="3.59"/>
      </g>
    </g>
  </g>
</svg>